<?xml version="1.0" standalone="no"?>
<!DOCTYPE svg PUBLIC "-//W3C//DTD SVG 20010904//EN"
 "http://www.w3.org/TR/2001/REC-SVG-20010904/DTD/svg10.dtd">
<svg version="1.0" xmlns="http://www.w3.org/2000/svg"
 width="700.000000pt" height="700.000000pt" viewBox="0 0 700.000000 700.000000"
 preserveAspectRatio="xMidYMid meet">
<metadata>
Created by potrace 1.11, written by Peter Selinger 2001-2013
</metadata>
<g transform="translate(0.000000,700.000000) scale(0.100000,-0.100000)"
fill="#000000" stroke="none">
<path d="M3565 6293 c-135 -14 -297 -61 -405 -120 -324 -177 -533 -518 -539
-882 -2 -126 17 -227 85 -451 30 -102 69 -228 84 -281 16 -52 34 -107 39 -122
10 -27 9 -26 -47 13 -31 23 -153 112 -270 199 -275 204 -342 240 -534 285 -81
20 -119 23 -235 21 -120 -3 -152 -6 -208 -19 -5 -2 -28 -6 -50 -11 -139 -28
-332 -142 -460 -269 -82 -83 -114 -126 -169 -227 -87 -161 -122 -298 -124
-480 -1 -142 15 -244 58 -362 76 -208 194 -361 387 -504 306 -225 434 -323
427 -323 -5 -1 -158 -1 -341 -2 -294 -1 -370 -4 -448 -21 -258 -57 -463 -191
-621 -406 -125 -170 -185 -355 -189 -579 -4 -227 50 -412 175 -597 161 -239
440 -409 723 -442 79 -9 3884 -9 3957 0 178 22 361 102 511 222 129 105 211
207 280 350 32 67 185 488 524 1450 49 138 166 468 522 1470 312 879 306 856
299 1069 -4 149 -26 252 -83 381 -97 223 -289 420 -507 521 -239 110 -545 121
-789 30 -234 -88 -424 -252 -546 -470 -24 -42 -92 -211 -115 -284 -8 -26 -33
-96 -55 -157 -22 -60 -52 -147 -68 -192 -15 -46 -30 -83 -33 -83 -3 0 -34 96
-69 213 -135 442 -167 522 -254 638 -167 223 -375 354 -648 409 -56 11 -207
18 -264 13z"/>
</g>
</svg>
